<svg version="1.1" xmlns="http://www.w3.org/2000/svg" viewBox="0.001 -1.812 62 32" role="img" class="logo logo--amc">
  <path class="fill" d="M14.062,6.31c-5.781,0-6.675,3.766-6.675,4.91h3.44c0.248-0.92,0.955-1.955,3.284-1.955 c2.796,0,3.065,2.26,3.065,2.795v0.344h-1.051c-5.111,0-9.328,0.998-9.328,5.052c0,2.107,2.148,4.611,5.455,4.611 c2.127,0,4.195-0.858,4.998-1.51l0.088,1.152h3.277V13.54C20.617,8.92,18.933,6.31,14.062,6.31z M17.201,15.968 c0,0.45-0.125,0.894-0.336,1.335c-0.404,0.887-1.895,1.793-3.777,1.793c-1.625,0-2.774-0.521-2.774-1.675 c0-1.562,1.81-2.013,3.14-2.142c1.32-0.133,2.162-0.145,2.707-0.141h1.041V15.968z M39.152,21.71L39.146,6.679h-5.439l-2.828,10.806 c-0.252-1.183-2.826-10.808-2.826-10.808h-5.436V21.71h3.551V10.69l3.08,11.02h3.27l3.08-11.02v11.02H39.152z M55.207,15.968h-3.43 c-0.566,1.759-1.965,2.939-3.689,2.939c-2.256,0-3.959-2.037-3.959-4.721c0-2.685,1.703-4.717,3.959-4.717 c1.719,0,3.104,1.168,3.682,2.905h3.424c-0.715-3.556-3.529-6.067-7.104-6.067c-4.273,0-7.281,3.198-7.281,7.881 c0,4.481,2.988,7.88,7.281,7.88C51.678,22.066,54.496,19.538,55.207,15.968z"/>
  <path d="M62.002,0v28.375H0V0H62.002z M14.062,6.31c-5.781,0-6.675,3.766-6.675,4.91h3.44c0.248-0.92,0.955-1.955,3.284-1.955 c2.796,0,3.065,2.26,3.065,2.795v0.344h-1.051c-5.111,0-9.328,0.998-9.328,5.052c0,2.107,2.148,4.611,5.455,4.611 c2.127,0,4.195-0.858,4.998-1.51l0.088,1.152h3.277V13.54C20.617,8.92,18.933,6.31,14.062,6.31z M17.201,15.968 c0,0.45-0.125,0.894-0.336,1.335c-0.404,0.887-1.895,1.793-3.777,1.793c-1.625,0-2.774-0.521-2.774-1.675 c0-1.562,1.81-2.013,3.14-2.142c1.32-0.133,2.162-0.145,2.707-0.141h1.041V15.968z M39.152,21.71L39.146,6.679h-5.439l-2.828,10.806 c-0.252-1.183-2.826-10.808-2.826-10.808h-5.436V21.71h3.551V10.69l3.08,11.02h3.27l3.08-11.02v11.02H39.152z M55.207,15.968h-3.43 c-0.566,1.759-1.965,2.939-3.689,2.939c-2.256,0-3.959-2.037-3.959-4.721c0-2.685,1.703-4.717,3.959-4.717 c1.719,0,3.104,1.168,3.682,2.905h3.424c-0.715-3.556-3.529-6.067-7.104-6.067c-4.273,0-7.281,3.198-7.281,7.881 c0,4.481,2.988,7.88,7.281,7.88C51.678,22.066,54.496,19.538,55.207,15.968z"/>
</svg>
