<svg version="1.1" xmlns="http://www.w3.org/2000/svg" viewBox="0 -0.027 245 142" role="img">
  <path d="M239.781,20.995C237.029,17.294,226.154,9.007,214.275,0c0.285,0.227,0.568,0.472,0.85,0.706 c0.041,0.03,0.084,0.059,0.105,0.085c0.271,0.239,0.541,0.47,0.807,0.707c0.029,0.036,0.066,0.075,0.123,0.108 c0.254,0.242,0.5,0.484,0.752,0.734c0.037,0.023,0.078,0.055,0.102,0.088c0.529,0.506,1.016,1.037,1.52,1.581 c0.027,0.029,0.053,0.074,0.102,0.104c0.217,0.26,0.455,0.523,0.666,0.781c0.055,0.041,0.086,0.096,0.119,0.141 c0.232,0.26,0.443,0.525,0.66,0.797c0.023,0.045,0.051,0.078,0.102,0.125c0.207,0.279,0.441,0.563,0.65,0.848 c1.074,1.449,0.949,2.268,0.119,2.959c-0.83,0.695-25.609,21.285-26.631,22.076c-1.006,0.805-1.85,0.26-2.219-0.064 c-3.406-3.156-7.104-4.296-12.543-3.217c-8.803,1.729-16.357,11.374-16.117,20.868l0.02,0.194 c0.268,9.773,8.266,14.479,17.074,12.742c0.184-0.047,0.371-0.078,0.576-0.127c0.15-1.99,0.373-2.936,0.373-2.936 c1.463-8.756,8.379-15.756,15.82-17.217c4.467-0.881,7.764-0.24,10.689,1.752c0.025,0.033,1.842,1.469,1.85,1.477 c0.371,0.312,1.215,0.86,2.221,0.066l27.531-21.812l0,0c0.414-0.327,0.678-0.82,0.678-1.383 C240.267,21.718,240.07,21.298,239.781,20.995z M244.652,76.791l-19.84-15.723v0.005c0.049,0.047,0.096,0.077,0.123,0.129 c0.002,0.002,0.006,0.005,0.008,0.008c0.033,0.049,0.07,0.084,0.098,0.137c0.004,0.003,0.004,0.008,0.004,0.01 c0.02,0.054,0.033,0.109,0.045,0.168c0,0.002,0,0.004,0.002,0.007c0.115,0.384,0.002,0.896-0.16,1.378 c-0.002,0.006-0.006,0.014-0.008,0.018c-0.016,0.062-0.043,0.123-0.078,0.168c-0.008,0.027-0.014,0.039-0.02,0.051 c-0.016,0.059-0.033,0.114-0.053,0.154c-0.006,0.03-0.01,0.045-0.018,0.061c-0.027,0.054-0.059,0.105-0.082,0.143 c-0.006,0.035-0.016,0.053-0.023,0.068c-0.014,0.049-0.033,0.08-0.059,0.129c-0.023,0.039-0.039,0.061-0.051,0.082 c-0.012,0.041-0.096,0.208-0.123,0.264c-7.947,15.812-23.705,30.544-44.402,34.673c-4.148,0.826-7.902,1.219-11.311,1.188 c-23.473,0.053-40.367-15.678-40.973-43.722l-0.006-0.304c-0.285-14.306,3.191-26.718,9.504-36.757 c0.064-0.075,0.1-0.153,0.137-0.234c-2.096-1.662-16.526-13.043-16.97-13.4c0.302,0.277,0.503,0.684,0.503,1.133v1.057v29.488v0.014 c0,0.756-0.559,1.396-1.298,1.499l0,0l-30.986,5.071l0,0h-0.003l0.003,0.007c-0.426,0-0.771,0.346-0.771,0.788l-0.004-0.002v12.923 l0.004-0.003c0,0.426,0.348,0.772,0.771,0.772l-0.003,0.007c0,0,26.136-4.274,26.257-4.274c0.838,0,1.521,0.668,1.521,1.521v0.01 v30.039v0.01c0,0.774-0.553,1.38-1.284,1.505l-26.491,4.32v0.002h-0.003l0.003,0.007c-0.379,0-0.699,0.28-0.764,0.66v18.863v0.01 c0,0.799-0.607,1.456-1.375,1.513c0,0-30.521,5.004-33.882,5.537c-0.038,0.006-0.085,0.012-0.126,0.016 c-0.104,0.012-0.17,0.02-0.174,0.02c-0.838,0-1.521-0.683-1.521-1.521v-0.01v-86.32L36.736,19.085c0,0,0.01,0.01,0.023,0.027 c0.347,0.279,0.565,0.703,0.565,1.184v1.068v97.814v0.009c0,0.729-0.536,1.362-1.237,1.494l0,0l-34.949,5.707 c-0.104,0.018-0.211,0.026-0.321,0.026c-0.302,0-0.583-0.101-0.817-0.248l19.266,15.283c0.4,0.322,0.688,0.524,1.111,0.491 c0.029-0.003,42.165-6.899,42.165-6.899c0.71-0.128,1.253-0.733,1.253-1.485v-6.028l7.142,5.676l0,0 c0.506,0.405,1.06,0.303,1.06,0.303l34.475-5.623c0.716-0.112,1.268-0.753,1.268-1.495v-19.282c0.014-0.353,0.252-0.629,0.555-0.699 l0.203-0.056c0.004,0,0.008,0,0.012,0l0,0l30.9-5.044l0,0c0.715-0.124,1.264-0.764,1.264-1.503v-7.708 c11.883,11.506,29.104,19.473,29.113,19.473c8.43,4.023,18.732,5.063,30.094,2.81c20.725-4.13,36.418-18.762,44.363-34.573 C244.669,78.971,245.457,77.459,244.652,76.791z"/>
</svg>
