<svg version="1.1" xmlns="http://www.w3.org/2000/svg" viewBox="-0.5 -0.5 1000 304" role="img">
  <path d="M0,214.511V4.443h36.901v210.068H0z M131.359,62.115c-47.312,0-80.052,36.377-80.052,78.014 c0,46.469,35.618,78.481,80.42,78.481c42.52,0,79.417-31.423,79.417-78.582C211.145,100.372,180.57,62.115,131.359,62.115 L131.359,62.115z M130.925,97.712c24.76,0,42.984,19.273,42.984,42.55c0,24.679-20.093,42.683-42.316,42.683 c-26.258,0-42.784-20.812-42.784-42.616C88.81,116.429,107.467,97.712,130.925,97.712z M303.858,62.115 c-47.312,0-80.053,36.377-80.053,78.014c0,46.469,35.618,78.481,80.42,78.481c42.52,0,79.417-31.423,79.417-78.582 c0-27.771-12.026-40.093-12.026-40.093l10.228-3.507V66.48h-52.41C329.435,66.48,318.073,62.115,303.858,62.115L303.858,62.115z  M303.424,97.712c24.76,0,42.984,19.273,42.984,42.55c0,24.679-20.093,42.683-42.316,42.683c-26.259,0-42.784-20.812-42.784-42.616 C261.309,116.429,279.966,97.712,303.424,97.712L303.424,97.712z M346.147,224.779c0,24.68-20.093,42.818-42.316,42.818 c-26.258,0-42.851-21.014-42.851-42.818h-37.436c0,46.47,35.618,78.482,80.42,78.482c42.52,0,79.417-31.323,79.417-78.482H346.147z  M398.424,214.511V66.479h36.9v148.032H398.424z M471.156,214.511V99.637h-19.788V66.48h19.788V21.022h36.9V66.48h20.322v33.157 h-20.322v114.874H471.156z M441.232,24.436c0,13.496-10.94,24.436-24.436,24.436s-24.436-10.94-24.436-24.436 C392.361,10.94,403.302,0,416.797,0S441.232,10.94,441.232,24.436z M611.34,62.015c-47.536,0-78.181,36.396-78.181,79.451 c0,44.493,30.746,77.245,78.949,77.245c44.965,0,67.083-28.077,67.083-28.077l-24.667-24.701c0,0-18.625,20.089-41.948,20.089 c-19.442,0-34.987-10.852-40.41-30.752h114.98v-10.161C687.146,104.564,663.68,62.015,611.34,62.015z M610.17,94.503 c16.999,0,34.383,9.094,38.271,30.818h-77.277C574.224,110.051,587.582,94.503,610.17,94.503L610.17,94.503z M779.447,218.729 c-47.671,0-80.152-36.308-80.152-79.116c0-44.179,36.71-77.626,79.999-77.626c41.849,0,63.269,29.542,63.269,29.542l-25.741,25.625 c0,0-14.911-19.266-37.702-19.266c-25.26,0-42.531,19.323-42.531,42.292c0,24.252,18.373,42.859,42.247,42.859 c23.157,0,37.95-19.234,37.95-19.234l25.999,25.611C842.784,189.416,821.572,218.729,779.447,218.729L779.447,218.729z  M856.209,214.619V3.909h36.901v77.416c0,0,14.129-19.337,44.865-19.337c38.639,0,61.024,28.723,61.024,65.46v87.172h-36.901 v-81.595c0-24.68-15.365-34.919-32.388-34.919c-19.395,0-36.601,11.037-36.601,36.829v79.685H856.209z"/>
</svg>
