<svg version="1.1" xmlns="http://www.w3.org/2000/svg" viewBox="-0.049 0 910 110" role="img">
  <path d="M3.245,6.928v101.591H0V1.463h3.033l43.771,64.679L90.893,1.463h3.05v107.056h-3.156V6.822L48.073,70.126h-2.116 L3.245,6.928z M155.659,1.463v2.943h-22.688v101.081h22.688v3.031h-48.39v-3.031h22.458V4.406h-22.458V1.463H155.659z  M173.393,108.519h-3.367V1.463h2.732l69.914,100.992V1.463h3.243v107.056h-3.032L173.393,8.179V108.519z M262.081,55 c0-14.808,5.359-27.712,16.165-38.835C288.753,5.359,301.55,0,316.658,0c15.337,0,28.241,5.465,38.729,16.165 c10.718,11.018,16.06,23.922,16.06,38.835c0,14.914-5.342,27.817-16.06,38.854C344.898,104.642,331.995,110,316.658,110 c-15.107,0-27.905-5.358-38.412-16.146C267.44,82.712,262.081,69.809,262.081,55z M353.078,91.421 c9.977-10.19,15.019-22.354,15.019-36.421s-5.042-26.248-15.019-36.42c-9.96-10.189-22.141-15.318-36.42-15.318 c-13.961,0-26.019,5.129-36.208,15.318c-9.962,10.277-15.001,22.459-15.001,36.42s5.04,26.124,15.001,36.421 c10.189,10.188,22.247,15.336,36.208,15.336C330.937,106.757,343.118,101.609,353.078,91.421z M388.987,4.83v103.688h-3.155V1.463 h37.16c10.171,0,18.157,3.155,23.833,9.449c5.659,6.293,8.497,13.644,8.497,22.158c0,8.603-2.838,15.953-8.497,22.141 c-5.676,6.206-13.556,9.238-23.833,9.238h-16.06l48.919,44.176h-4.936l-49.13-44.493v-2.821h21.101 c9.132,0,16.271-2.856,21.418-8.408c5.13-5.57,7.651-12.287,7.651-19.832c0-7.668-2.521-14.279-7.651-19.85 c-5.147-5.553-12.287-8.285-21.418-8.285h-33.899V4.83z M509.282,81.654l32.542-81.231h16.465l-43.366,108.413h-11.317 L460.135,0.423h16.817L509.282,81.654z M624.712,0.529v14.172h-19.814v79.328h19.814v14.384h-55.176V94.135h19.813V14.809h-19.813 V0.529H624.712z M635.112,55.317c0-14.808,5.042-27.606,15.125-38.412c4.831-5.042,10.508-8.922,17.205-11.97 c6.735-2.943,13.539-4.406,20.591-4.406c12.269,0,22.881,3.561,31.802,10.806c9.025,7.245,14.983,16.905,18.051,29.068h-15.337 c-2.714-7.862-7.121-13.961-13.327-18.157c-6.1-4.301-13.221-6.398-21.295-6.398c-10.4,0-19.427,3.984-27.076,11.969 c-7.264,7.563-10.93,16.695-10.93,27.501c0,10.824,3.561,19.956,10.718,27.395c7.228,7.544,16.253,11.317,27.184,11.317 c8.179,0,15.406-2.187,21.823-6.699s10.93-10.718,13.644-18.792h15.126c-3.068,12.269-9.132,22.035-18.369,29.616 c-9.132,7.438-19.955,11.212-32.224,11.212c-14.914,0-27.289-5.255-37.372-15.725C640.26,82.395,635.112,69.702,635.112,55.317z  M770.956,61.629v31.484h49.747v15.405h-65.4V0.423h65.189v15.425h-49.536v30.127h48.479v15.654H770.956z M907.188,28.558 l-15.338,0.617c-1.058-4.513-3.666-7.862-7.861-10.277s-8.92-3.474-13.962-3.367c-8.814,0.212-15.336,2.944-19.427,8.092 c-1.974,2.626-2.926,5.976-2.608,9.96c0.106,2.098,0.74,4.002,1.762,5.465c1.164,1.568,2.328,2.732,3.703,3.666 c1.339,0.952,3.243,1.693,5.641,2.309c2.434,0.636,4.513,1.059,6.205,1.27c1.692,0.212,3.984,0.424,6.911,0.741 c4.441,0.511,8.215,1.146,11.563,1.991c3.349,0.829,6.909,1.992,10.719,3.561c3.771,1.57,7.015,3.791,9.448,6.718 c2.397,2.926,4.301,6.417,5.219,10.507c0.528,2.502,0.739,4.935,0.739,7.015c0,9.767-3.984,17.629-12.057,23.623 c-8.074,5.993-17.312,8.92-27.713,8.92c-5.677,0-11.353-1.058-16.782-3.139c-5.465-2.116-10.4-5.465-14.489-9.978 c-4.196-4.513-6.629-9.871-7.158-15.866l-0.105-2.926l15.653-0.317l0.106,2.327v-0.423c0.528,4.725,3.138,8.392,7.756,11.105 c4.725,2.751,9.767,4.09,15.338,4.09c6.204,0,11.739-1.551,16.675-4.83c4.937-3.244,7.37-7.438,7.37-12.587 c0-1.058-0.106-2.186-0.424-3.666c-0.423-1.904-1.375-3.562-2.75-4.937c-1.445-1.375-3.35-2.291-5.853-3.031 c-2.539-0.74-4.725-1.27-6.84-1.587c-1.975-0.317-4.725-0.741-8.074-0.951c-3.982-0.424-7.439-0.812-10.295-1.341 c-2.926-0.528-6.1-1.375-9.66-2.75c-3.561-1.232-6.486-2.82-8.814-4.725c-2.291-1.886-4.406-4.406-6.1-7.65 c-1.762-3.262-2.714-6.928-3.031-11.229v0.105c-0.635-7.668,1.375-14.385,5.782-20.361c3.455-4.512,8.073-7.984,13.962-10.506 c5.852-2.521,11.952-3.772,18.475-3.772c9.025,0,17.099,2.415,24.045,7.245C901.724,12.393,905.918,19.32,907.188,28.558z"/>
</svg>
