<svg version="1.1" xmlns="http://www.w3.org/2000/svg" viewBox="-0.021 0 249 146" role="img">
  <path d="M91.348,145.985H74.16V0h26.58l17.794,120.428c-2.663-28.621-6.14-74.827-6.14-99.16V0h17.174v145.985h-24.317 L88.893,29.033c1.436,26.165,2.455,57.449,2.455,75.035V145.985z M139.391,145.985V0h24.326c16.154,0,26.168,8.785,26.168,29.241 v21.461c0,13.283-4.098,20.042-9.822,23.52c5.725,3.68,9.822,10.218,9.822,21.459v21.269c0,20.044-10.637,29.036-26.168,29.036 H139.391z M159.016,18.398v48.249h2.453c6.953,0,8.787-2.662,8.787-10.634V28.207c0-6.746-2.039-9.822-7.973-9.822h-3.268V18.398z  M159.016,82.604v44.981h3.268c6.139,0,7.973-3.479,7.973-10.427V92.412c0-7.157-2.248-9.808-8.787-9.808H159.016z M226.67,118.594 h-12.262l-1.643,27.392h-19.834L207.25,0h27.809l13.9,145.985h-20.648L226.67,118.594z M215.219,102.029h10.432l-1.645-26.787 c-0.604-10.637-2.248-44.374-3.475-62.566h-0.814l-2.867,62.566L215.219,102.029z M46.459,131.536 c-1.954-1.748-0.652-2.473-0.727-3.168c-1.287-5.31-5.502-8.517-3.312-10.265c-0.533-1.744-1.627-3.947-1.598-3.947 c-6.568-3.773-12.158-9.897-13.104-10.798c-1.154-1.258-3.121-2.517-3.491-3.521c-1.582-1.449-9.318-12.438-11.122-16.475 l-3.137-0.443c-1.434-5.843-6.197-10.741-6.316-16.581c-0.045-2.221,1.006-6.953,1.392-7.898c0.384-0.963,2.204-2.531,2.204-2.531 v-1.567c-6.85,0.192-4.882-0.503-6.066-3.165c-0.826-1.863-0.235-2.264,0.061-3.55c0.916-3.772,3.979-9.6,5.236-12.247 c0.385-1.33,1.701-4.556,1.701-4.556c5.102-10.396,7.01-9.644,13.089-10.22l0.296-0.429c6.08-0.267,5.089-0.726,5.947-6.582 c-0.889,0.384-1.154-1.834-1.154-1.834c-0.474-3.329,0.932-2.707,1.598-2.767c0.147-5.473,0.709-7.203,4.658-8.711H12.128 C5.428,0.281,0,5.709,0,12.408v121.464C0,140.572,5.428,146,12.128,146h35.868C43.9,143.779,46.325,139.552,46.459,131.536  M39.105,24.625l0.045,0.52c1.094,0.637,1.643,1.153,2.752,1.863c2.929,1.834,6.521,5.118,6.079,16.389 c0.812,2.455,1.185,7.291,1.937,8.845c1.523,3.017,2.545,4.985,2.988,7.839c0,0,0.443,4.438,1.006,4.764 c3.033,0.679,2.145,0.975,2.588,1.494c0.474,0.605,2.221,0.576,2.221,2.201c0.605,0.814,1.048,1.658,1.389,2.531V12.395 c0-6.686-5.441-12.113-12.113-12.113H36.398c1.866,0.665,2.914,1.434,3.522,2.676c1.493,0.133,3.283,3.477,0.502,8.432 c1.228,0.812,0.267,2.04-0.606,3.461c-0.251,0.459-0.547,1.258-1.361,1.213c-1.049,2.218-2.32,4.364-3.283,4.496 c-0.295,0.354-0.503,1.317-0.059,1.76C36.533,22.955,38.248,23.812,39.105,24.625 M60.109,79.026 c-1.568,3.993-5.487,6.804-10.057,6.804c-5.99,0-10.813-4.836-10.813-10.798c0-5.102,3.505-9.376,8.254-10.515 c-1.242-3.121-3.875-8.166-4.658-9.836c-0.741-1.642-2.517-11.921-2.899-13.963c-0.089-0.443-4.659,2.663-4.676,2.84 c-0.264,0.268-3.432,8.521-3.563,8.979c-0.059,0.281-0.075,1.389-0.075,1.389s1.554,0.193,2.457,2.914 c0.887,2.707,3.594,12.617,3.594,12.617s-0.739,0.755-0.768,0.709c3.414,11.434,2.218,16.346,3.755,19.701 c1.923,4.719,2.44,4.112,4.099,8.078c1.182,2.896,2.499,14.271,2.942,14.776c1.849,2.336,2.841,4.156,2.841,5.486 s-1.568,5.251-0.992,7.529c0.342,1.344,0.531,4.347,1.153,4.922c0,0,0.577,1.126,0.296,1.63c-0.088,0.177-0.25,0.443-0.177,0.635 c1.021,3.597,4.304,9.702-1.022,12.914h0.119c5.798-0.901,10.191-5.872,10.191-11.98V79.026z"/>
</svg>
