<svg version="1.1" xmlns="http://www.w3.org/2000/svg" viewBox="0 -0.072 196 70" role="img">
  <path d="M21.62,69.826c-5.84-0.232-10.619-1.83-14.354-4.799c-0.713-0.566-2.412-2.266-2.982-2.984 c-1.516-1.904-2.545-3.758-3.232-5.814c-2.113-6.332-1.025-14.643,3.111-23.76c3.543-7.809,9.012-15.551,18.549-26.275 C24.116,4.615,28.302,0,28.327,0c0.012,0-0.217,0.396-0.504,0.877c-2.48,4.154-4.602,9.047-5.758,13.283 c-1.857,6.797-1.633,12.629,0.656,17.152c1.578,3.117,4.285,5.814,7.33,7.307c5.328,2.611,13.131,2.828,22.658,0.633 c0.656-0.152,33.162-8.781,72.237-19.176C164.021,9.68,195.996,1.182,196,1.188c0.012,0.01-90.779,38.859-137.911,59.014 c-7.465,3.191-9.461,3.998-12.969,5.23C36.149,68.58,28.114,70.084,21.62,69.826z"/>
</svg>
