<svg version="1.1" xmlns="http://www.w3.org/2000/svg" viewBox="0 0 120 56" role="img">
  <path d="M67,33.8h-2.399v3.001h2.299c0.801,0.099,1.602-0.501,1.701-1.301c0-0.1,0-0.2,0-0.3C68.601,33.899,67.6,33.8,67,33.8z  M77.5,18.8c-0.3,1.001-0.801,2.601-1.101,3.601h3.4l-1.7-5.701C77.9,17.5,77.7,18.2,77.5,18.8z M54.5,36.101 c-0.2,0.799-0.699,2.199-0.9,2.999h2.9L55,34.3C54.8,35,54.6,35.6,54.5,36.101z M0,0v56h120V0H0z M25.1,24.9 c-1.5,2.299-4.4,2.399-5,2.399c-1.1,0-2.1-0.2-3.1-0.7c-2.6-1.299-2.6-3.699-2.6-5.5v-7.5H17.8V22c0,0.6,0,1.1,0.2,1.6 c0.5,0.7,1.3,1,2.2,0.9c2.3,0,2.3-1.6,2.3-2.6V13.6h3.4v7.5C25.9,22.4,25.7,23.699,25.1,24.9z M36.9,27H28.3V13.6h3.3v10.6h5.2V27 H36.9z M37.5,13.6h10.3v2.701h-3.5V27H41V16.2h-3.5V13.6z M48.9,43H40.1V31.7H48.4v2.199h-5.5V35.9H48.1V38H42.9v2.7h6V43z  M49.3,13.6h3.3V27h-3.4L49.3,13.6z M57.6,43L57,41.199h-4.2L52.3,43h-3l4.2-11.3h3L60.6,43H57.6z M58.801,18.4L58.2,16 c0.1,1.1,0.1,1.3,0.1,2.6l0.2,8.4h-3.199V13.6H60.2l2,7.5l0.499,2.201C62.9,22.4,62.9,22.3,63.1,21.6l2.201-8H70.2V27H67l0.2-9.6 V16.1L67,16.6C66.8,17.4,66.8,17.4,66.7,18l-2.5,9h-2.9L58.801,18.4z M68.601,43l-2.2-4h-1.8v4h-2.8V31.7h5.099 c1.301-0.2,2.7,0.3,3.701,1.2c0.6,0.699,0.899,1.6,0.899,2.5c0.101,1.499-0.899,2.8-2.3,3.1l2.6,4.5H68.601z M81.6,41.8 c-1.1,1.101-2.699,1.601-4.2,1.5c-1.999,0.201-3.999-0.7-5.2-2.3l2.101-1.399c0.3,0.4,0.7,0.7,1.101,0.898 C76.1,40.899,76.8,41,77.601,41c1.1,0,2.1-0.501,2.1-1.3c0-0.8-1.1-1-2-1.2c-0.601-0.101-1.2-0.2-1.899-0.3 c-0.7-0.101-3.001-0.601-3.001-3.1c0-2.9,2.601-3.801,4.5-3.801s3.7,0.8,5,2.1l-2.101,1.5c-0.3-0.3-0.7-0.7-1.099-0.899 c-0.601-0.3-1.2-0.501-1.801-0.501c-1.1,0-1.699,0.601-1.699,1.201c0,0.899,0.999,1,1.399,1.101c1.2,0.1,2.301,0.399,3.4,0.7 c1.199,0.398,2,1.499,2,2.8C82.501,40.199,82.101,41.1,81.6,41.8z M81.2,27l-0.7-2.199h-4.899L75,27h-3.6l4.999-13.4h3.5L84.8,27 H81.2z M95.3,16.2h-3.5V27H88.4V16.2H85v-2.7h10.3V16.2z M107.301,27h-10.5V13.6h9.899V16.2h-6.6V18.6h6.1v2.5h-6.1v3.2h7.2V27z"/>
</svg>
