<svg version="1.1" xmlns="http://www.w3.org/2000/svg" viewBox="0 -0.004 220 50" role="img">
  <path d="M54.638,41.115c-4.427,0-7.905-3.622-7.905-8.229c0-4.615,3.478-8.237,7.905-8.237c4.392,0,7.979,3.698,7.979,8.237 C62.598,37.424,59.03,41.115,54.638,41.115 M54.638,15.811c-9.388,0-17.017,7.668-17.017,17.091c0,9.424,7.629,17.091,17.017,17.091 s17.017-7.667,17.017-17.091C71.655,23.459,64.008,15.811,54.638,15.811 M128.546,41.37c-4.847,0-8.49-3.676-8.49-8.562 c0-4.848,3.659-8.49,8.49-8.49c4.609,0,8.106,3.659,8.106,8.49C136.636,37.624,133.084,41.37,128.546,41.37 M136.376,19.342 c-2.359-2.287-5.688-3.531-9.456-3.531c-7.944,0-15.979,5.873-15.979,17.091c0,6.626,2.896,10.665,5.309,12.883 c2.872,2.636,6.827,4.208,10.54,4.208c3.784,0,7.245-1.427,9.608-3.954v3.298h9.31V0h-9.31v19.342H136.376z M167.466,41.115 c-4.429,0-7.904-3.622-7.904-8.229c0-4.615,3.476-8.237,7.904-8.237c4.392,0,7.981,3.698,7.981,8.237 C175.447,37.424,171.857,41.115,167.466,41.115 M167.466,15.811c-9.386,0-17.015,7.668-17.015,17.091 c0,9.424,7.629,17.091,17.015,17.091s17.02-7.667,17.02-17.091C184.485,23.459,176.852,15.811,167.466,15.811 M92.606,41.115 c-4.536,0-8.105-3.622-8.105-8.229c0-4.615,3.57-8.237,8.105-8.237c2.893,0,5.49,1.52,6.938,3.969l7.683-4.719 c-3.055-5.051-8.472-8.088-14.674-8.088c-9.386,0-17.017,7.668-17.017,17.091c0,9.424,7.631,17.091,17.017,17.091 c6.203,0,11.62-3.036,14.674-8.09l-7.683-4.718C98.096,39.599,95.499,41.115,92.606,41.115 M205.382,41.115 c-4.538,0-8.106-3.622-8.106-8.229c0-4.615,3.568-8.237,8.106-8.237c2.89,0,5.488,1.52,6.936,3.969L220,23.898 c-3.053-5.051-8.469-8.088-14.672-8.088c-9.391,0-17.02,7.668-17.02,17.091c0,9.424,7.629,17.091,17.02,17.091 c6.182,0,11.619-3.036,14.672-8.09l-7.683-4.718C210.87,39.599,208.271,41.115,205.382,41.115 M0.401,41.393 c-0.238,0.401-0.347,0.747-0.366,1.116c0,0.017,0,0.092,0,0.18v6.663l0,0l0,0h34.694v-9.093H12.552c0,0,21.811-32.299,21.829-32.299 c0.239-0.401,0.348-0.751,0.366-1.116c0-0.018,0-0.09,0-0.183V0l0,0l0,0H0v9.096h22.231C22.231,9.076,0.401,41.37,0.401,41.393z"/>
</svg>
