<svg version="1.1" xmlns="http://www.w3.org/2000/svg" viewBox="-4.035 -4 96 96" role="img">
  <path d="M43.965,32.972l-0.088,0.089c-5.746,6.214-5.707,15.814,0.088,21.982c5.861-6.213,5.861-15.918,0-22.13V32.972z  M55.688,27.917c-2.921-0.003-5.788,0.787-8.295,2.285c7.146,7.834,7.146,19.821,0,27.655c7.674,4.514,17.554,1.955,22.069-5.719 c4.516-7.672,1.955-17.553-5.718-22.068c-2.444-1.437-5.223-2.206-8.057-2.227V27.917z M32.24,27.917 c-8.902,0.011-16.111,7.237-16.101,16.139c0.011,8.904,7.237,16.111,16.14,16.102c2.908-0.003,5.761-0.793,8.257-2.286 c-7.146-7.833-7.146-19.819,0-27.653c-2.495-1.537-5.365-2.359-8.296-2.374V27.917z M55.688,23.52 c11.331-0.045,20.554,9.104,20.599,20.435c0.043,11.332-9.104,20.554-20.436,20.599c-4.253,0.018-8.408-1.29-11.887-3.736 c-9.307,6.462-22.092,4.156-28.555-5.152c-6.462-9.308-4.154-22.092,5.152-28.555c7.037-4.885,16.365-4.885,23.402,0 c3.441-2.39,7.533-3.668,11.724-3.663V23.52z M43.965,4.469c-21.852,0-39.568,17.715-39.568,39.568 c0,21.854,17.717,39.567,39.568,39.567c21.854,0,39.567-17.714,39.567-39.567c0.039-21.853-17.642-39.6-39.494-39.641 c-0.024,0-0.049,0-0.073,0V4.469z M43.965,0.073c24.28,0,43.964,19.683,43.964,43.963C87.929,68.318,68.245,88,43.965,88 S0,68.318,0,44.037C-0.041,19.756,19.61,0.04,43.892,0c0.024,0,0.049,0,0.073,0V0.073z"/>
</svg>
