<svg version="1.1" xmlns="http://www.w3.org/2000/svg" viewBox="-10.338 0 96 96" role="img">
  <path d="M39.877,0v14.77h-4.431V0H39.877z M70.035,12.554l3.072,3.071L62.77,26.066l-3.177-3.174L70.035,12.554z M4.771,12.761 l10.441,10.456l-3.131,3.07L1.625,15.846L4.771,12.761z M37.661,39.876c-4.486,0-8.123,3.638-8.123,8.123 c0,4.486,3.637,8.123,8.123,8.123s8.123-3.637,8.123-8.123C45.784,43.514,42.147,39.876,37.661,39.876z M37.661,35.445 c6.934,0,12.554,5.621,12.554,12.554c0,6.934-5.62,12.554-12.554,12.554s-12.555-5.62-12.555-12.554 C25.116,41.068,30.731,35.454,37.661,35.445z M37.661,28.061c-11.535,0-22.242,6.498-32.211,19.938 c9.969,13.44,20.676,19.939,32.211,19.939s22.244-6.499,32.213-19.939C59.905,34.559,49.196,28.061,37.661,28.061z M37.661,23.63 c13.874,0,26.428,8.123,37.662,24.369C64.089,64.245,51.535,72.368,37.661,72.368c-13.873,0-26.427-8.123-37.661-24.369 C11.244,31.753,23.798,23.63,37.661,23.63z M63.242,69.71l10.457,10.441l-3.147,3.146l-10.44-10.456L63.242,69.71z M12.554,69.931 l3.176,3.177L5.288,83.445l-3.072-3.072L12.554,69.931z M39.877,81.23v14.769h-4.431V81.23H39.877z"/>
</svg>
